HIERARCHY
ROOT Hips
{
	OFFSET 0.000000 88.474243 0.000000
	CHANNELS 6 Xposition Yposition Zposition Zrotation Yrotation Xrotation 
	JOINT Hips_Spine
	{
		OFFSET 0.000000 0.000000 0.000000
		CHANNELS 3 Zrotation Yrotation Xrotation
		JOINT Spine
		{
			OFFSET 0.005100 8.711998 -0.691000
			CHANNELS 3 Zrotation Yrotation Xrotation
			JOINT Spine1
			{
				OFFSET -0.009200 8.660301 -1.275000
				CHANNELS 3 Zrotation Yrotation Xrotation
				JOINT Spine2
				{
					OFFSET 0.006300 9.852501 -1.857000
					CHANNELS 3 Zrotation Yrotation Xrotation
					JOINT Spine2_Neck
					{
						OFFSET 0.000000 0.000000 0.000000
						CHANNELS 3 Zrotation Yrotation Xrotation
						JOINT Neck
						{
							OFFSET 0.016300 11.420799 -0.263300
							CHANNELS 3 Zrotation Yrotation Xrotation
							End Site #name: Head
							{
								OFFSET -0.019200 9.262405 2.362500
							}
						}
					}
					JOINT Spine2_LeftShoulder
					{
						OFFSET 0.000000 0.000000 0.000000
						CHANNELS 3 Zrotation Yrotation Xrotation
						JOINT LeftShoulder
						{
							OFFSET 5.616900 6.732201 -0.345700
							CHANNELS 3 Zrotation Yrotation Xrotation
							JOINT LeftArm
							{
								OFFSET 10.664888 -0.183372 -2.440700
								CHANNELS 3 Zrotation Yrotation Xrotation
								JOINT LeftForeArm
								{
									OFFSET 27.459126 0.000000 0.000000
									CHANNELS 3 Zrotation Yrotation Xrotation
									End Site #name: LeftHand
									{
										OFFSET 21.306858 0.000000 0.000000
									}
								}
							}
						}
					}
					JOINT Spine2_RightShoulder
					{
						OFFSET 0.000000 0.000000 0.000000
						CHANNELS 3 Zrotation Yrotation Xrotation
						JOINT RightShoulder
						{
							OFFSET -5.580300 6.737503 -0.344400
							CHANNELS 3 Zrotation Yrotation Xrotation
							JOINT RightArm
							{
								OFFSET -10.679335 -0.188484 -2.383900
								CHANNELS 3 Zrotation Yrotation Xrotation
								JOINT RightForeArm
								{
									OFFSET -27.503529 0.000000 0.000000
									CHANNELS 3 Zrotation Yrotation Xrotation
									End Site #name: RightHand
									{
										OFFSET -21.306808 0.000000 0.000000
									}
								}
							}
						}
					}
				}
			}
		}
	}
	JOINT Hips_LeftUpLeg
	{
		OFFSET 0.000000 0.000000 0.000000
		CHANNELS 3 Zrotation Yrotation Xrotation
		JOINT LeftUpLeg
		{
			OFFSET 6.857700 -6.739601 0.312100
			CHANNELS 3 Zrotation Yrotation Xrotation
			JOINT LeftLeg
			{
				OFFSET -0.367590 -34.731552 -4.572400
				CHANNELS 3 Zrotation Yrotation Xrotation
				End Site #name: LeftFoot
				{
					OFFSET 0.367590 -34.656704 -6.067400
				}
			}
		}
	}
	JOINT Hips_RightUpLeg
	{
		OFFSET 0.000000 0.000000 0.000000
		CHANNELS 3 Zrotation Yrotation Xrotation
		JOINT RightUpLeg
		{
			OFFSET -6.876100 -6.733299 0.301000
			CHANNELS 3 Zrotation Yrotation Xrotation
			JOINT RightLeg
			{
				OFFSET 0.347353 -34.795158 -4.515900
				CHANNELS 3 Zrotation Yrotation Xrotation
				End Site #name: RightFoot
				{
					OFFSET -0.347353 -34.589367 -6.070300
				}
			}
		}
	}
}
MOTION
Frames: 15
Frame Time: 0.041667
-0.107336 0.058670 0.069050 -3.124689 0.629669 -5.815975 -0.000000 0.000000 0.000000 -0.361929 0.906187 5.945362 -1.199687 1.166783 9.666650 0.000000 0.000000 0.000000 -1.804595 0.830722 9.730143 -0.717386 -3.457579 3.695025 -1.725039 0.823962 9.961733 -2.082828 -1.608253 0.209678 -68.469469 -23.423933 17.628900 68.900367 -88.305803 -69.343003 -1.150049 1.645158 9.884048 -5.104807 0.058928 2.025134 76.021647 3.335948 9.030016 166.569794 87.868275 167.838044 0.000000 -0.000000 0.000000 6.813333 0.789023 -18.422645 -1.055706 0.951746 33.685923 0.000000 0.000000 0.000000 -4.503804 -2.760631 -15.228611 -0.985870 -2.375667 27.669935 
-0.100024 0.076335 0.204101 -3.526166 -1.503036 -5.211326 -0.000000 0.000000 0.000000 -0.622004 0.465681 5.575198 -1.855193 1.226257 10.236495 0.000000 0.000000 0.000000 -2.019301 1.237693 10.471508 -1.460581 -3.945005 4.932907 -2.074727 1.235434 10.724467 -0.294918 1.128642 -0.227249 -69.687345 -22.573531 29.328403 174.334581 -83.690367 -174.420850 -1.617611 1.225619 10.025156 -5.396297 -2.807953 0.955476 84.196253 -6.396963 5.114256 -173.748353 84.007766 -174.140861 0.000000 -0.000000 0.000000 7.780179 1.030278 -22.066685 -0.206655 1.743402 32.819110 0.000000 0.000000 0.000000 -3.228603 -3.226784 -15.480516 0.354271 -1.254722 26.576092 
0.038383 0.029846 0.155176 -3.799498 -4.718504 -3.900909 -0.000000 0.000000 0.000000 -0.830517 0.500772 5.218900 -2.206614 1.334509 10.739007 0.000000 0.000000 0.000000 -2.427102 1.444438 11.310248 -1.523194 -3.633215 4.637170 -2.008163 1.425521 10.911906 0.198985 1.164062 -0.266426 -70.653694 -18.712269 33.670869 -179.490432 -81.410744 179.080123 -1.900177 1.479321 10.133165 -4.229880 -2.741171 0.988970 82.150305 -9.722384 8.051899 -156.552965 87.645971 -156.736342 -0.000000 -0.000000 0.000000 7.712542 1.230876 -22.534963 -0.647739 0.732197 35.400120 0.000000 0.000000 0.000000 -3.425154 -3.589500 -16.833659 0.647113 -1.330498 26.480834 
0.137049 -0.020778 0.145439 -4.033668 -6.330421 -2.876394 -0.000000 0.000000 0.000000 -0.774323 0.594749 4.825479 -2.238953 1.580357 10.826790 0.000000 0.000000 0.000000 -2.226757 1.596794 10.809566 -1.734504 -3.718343 4.965354 -2.011041 1.571265 10.820737 0.945358 0.641385 0.011391 -70.329453 -17.101968 33.873263 -179.060099 -80.479093 178.745976 -2.006853 1.673109 9.986114 -4.526292 -2.119658 1.265568 80.385759 -9.969809 9.927722 -161.338421 86.265646 -161.890394 -0.000000 -0.000000 0.000000 7.414762 0.976177 -22.938440 -1.065222 0.508194 35.127830 0.000000 0.000000 0.000000 -3.228133 -3.485512 -17.711314 0.709629 -0.835363 26.623005 
0.178662 -0.034044 0.226492 -4.590883 -6.139465 -2.198460 -0.000000 -0.000000 0.000000 -0.671927 0.559018 4.818019 -2.187061 1.624316 10.345800 0.000000 0.000000 0.000000 -2.099608 1.600682 10.238844 -1.713146 -3.822268 5.302219 -1.917926 1.596420 10.426913 1.352356 0.391205 0.221644 -70.464251 -16.743811 33.021279 -178.360859 -81.843468 178.207858 -1.957606 1.681580 9.894080 -4.959238 -2.402828 1.452353 80.402300 -9.214553 10.340556 -157.884073 86.128815 -158.653079 -0.000000 -0.000000 0.000000 7.292736 1.325304 -22.892651 -1.162759 0.602985 34.161679 0.000000 0.000000 0.000000 -2.850045 -3.432713 -18.052929 0.783763 -0.487622 26.222206 
0.219834 -0.034929 0.321977 -4.956320 -5.331865 -2.108744 -0.000000 -0.000000 0.000000 -0.587729 0.572497 4.879158 -2.044532 1.575605 9.954283 0.000000 0.000000 0.000000 -2.037383 1.494943 9.877282 -1.483042 -3.793264 5.370644 -1.866231 1.530587 10.128858 1.595456 0.641335 0.309225 -71.029197 -17.215086 31.786234 -177.058860 -83.436641 176.934752 -1.874092 1.610228 9.852139 -4.827147 -2.907468 1.473618 80.894675 -8.509074 9.321616 -159.486888 85.711284 -160.292964 -0.000000 -0.000000 0.000000 7.204686 1.530484 -22.695510 -1.145233 0.742883 33.589361 -0.000000 -0.000000 0.000000 -2.611620 -3.385834 -17.696564 0.634837 -0.502116 25.513837 
0.268428 -0.026013 0.416069 -5.012258 -4.788809 -2.222181 -0.000000 -0.000000 0.000000 -0.573427 0.575843 4.903057 -1.957100 1.518462 9.857974 0.000000 0.000000 0.000000 -2.046721 1.405136 9.790603 -1.161546 -3.664574 5.323328 -1.850400 1.464086 9.948151 1.640101 0.931392 0.321334 -71.352419 -18.207610 30.446185 -176.179010 -84.023613 176.084964 -1.761707 1.534018 9.845205 -4.349448 -3.240313 1.339686 81.097305 -8.138947 8.280258 -161.060334 85.651871 -161.777996 -0.000000 -0.000000 0.000000 6.988616 1.490190 -22.354762 -1.069058 0.820065 33.069858 -0.000000 -0.000000 0.000000 -2.693487 -3.316334 -17.089764 0.609495 -0.597681 24.873724 
0.327785 -0.014675 0.491512 -4.926080 -4.624401 -2.246888 -0.000000 -0.000000 0.000000 -0.562124 0.582475 4.920095 -1.908376 1.491848 9.874904 0.000000 0.000000 0.000000 -2.026199 1.344655 9.810550 -0.937888 -3.519353 5.265261 -1.824081 1.430125 9.867724 1.571005 1.139258 0.291860 -71.488788 -19.113737 29.666864 -176.180339 -84.180387 176.140349 -1.670430 1.499186 9.850432 -3.990841 -3.382277 1.245936 80.844924 -8.096394 7.533384 -161.794510 85.877080 -162.388035 -0.000000 -0.000000 0.000000 6.782510 1.452320 -22.199365 -0.963180 0.844612 33.003067 -0.000000 -0.000000 0.000000 -2.919068 -3.269658 -16.619142 0.598788 -0.730383 24.565325 
0.397935 -0.003817 0.544717 -4.713114 -4.816471 -2.126682 -0.000000 -0.000000 0.000000 -0.552551 0.572641 4.852537 -1.867039 1.496139 9.929456 0.000000 0.000000 0.000000 -1.973029 1.330363 9.853814 -0.653653 -3.125132 5.092317 -1.788892 1.423423 9.838617 1.481009 1.160378 0.274385 -71.578161 -19.516420 29.527495 -176.424927 -84.074473 176.400156 -1.613810 1.506792 9.864338 -3.975671 -3.261815 1.189333 80.209635 -7.923670 7.250535 -163.226577 85.960650 -163.699164 -0.000000 -0.000000 0.000000 6.632571 1.443512 -22.119411 -0.891453 0.816066 33.121682 -0.000000 -0.000000 0.000000 -3.191668 -3.157181 -16.377207 0.612920 -0.858531 24.584268 
0.483028 0.003942 0.574751 -4.555672 -5.172627 -1.965052 -0.000000 -0.000000 0.000000 -0.535626 0.550983 4.830655 -1.835778 1.510731 9.977154 0.000000 0.000000 0.000000 -1.921047 1.353347 9.930222 -0.308023 -2.608454 4.865781 -1.744594 1.428537 9.822435 1.447496 1.006719 0.273312 -71.719499 -19.551216 29.712726 -176.446886 -84.180015 176.426125 -1.569591 1.524671 9.860855 -3.987260 -2.938790 1.173774 79.726524 -7.591511 7.351651 -164.814465 85.880286 -165.219850 -0.000000 -0.000000 0.000000 6.504364 1.387025 -22.047630 -0.852553 0.763749 33.221950 -0.000000 -0.000000 0.000000 -3.451833 -3.034570 -16.338153 0.608322 -0.967091 24.737293 
0.583736 0.009776 0.590412 -4.441715 -5.675218 -1.806178 -0.000000 -0.000000 0.000000 -0.518779 0.537228 4.790854 -1.800135 1.518040 9.963138 0.000000 0.000000 0.000000 -1.842963 1.378949 9.968356 0.041256 -2.012617 4.516998 -1.693356 1.434153 9.817150 1.526610 0.815565 0.284108 -72.001697 -19.308154 30.090403 -176.556233 -84.301057 176.550799 -1.537389 1.536544 9.849868 -4.069228 -2.603121 1.201197 79.579282 -6.930550 7.954161 -166.453428 85.677113 -166.799738 -0.000000 -0.000000 0.000000 6.392814 1.373854 -22.018370 -0.844472 0.721787 33.277969 -0.000000 -0.000000 0.000000 -3.657453 -2.913631 -16.335859 0.554434 -1.039636 24.830394 
0.693965 0.017673 0.605823 -4.373820 -6.104689 -1.690424 -0.000000 -0.000000 0.000000 -0.503416 0.537456 4.741664 -1.749847 1.514623 9.902428 0.000000 0.000000 0.000000 -1.748328 1.402943 9.962780 0.384449 -1.408004 4.159283 -1.643756 1.438830 9.806711 1.653394 0.785665 0.294648 -72.362681 -18.851459 30.468497 -176.793093 -84.383211 176.811767 -1.506904 1.538748 9.830811 -4.196134 -2.341776 1.217718 79.593794 -6.785932 8.256070 -168.069875 85.376728 -168.385411 -0.000000 -0.000000 0.000000 6.231404 1.330735 -21.930646 -0.858826 0.688075 33.243679 -0.000000 -0.000000 0.000000 -3.773182 -2.791817 -16.333569 0.524021 -1.025505 24.766079 
0.807513 0.029955 0.629457 -4.343437 -6.428136 -1.616892 -0.000000 -0.000000 0.000000 -0.482993 0.560245 4.714562 -1.672554 1.510174 9.818167 0.000000 0.000000 0.000000 -1.660863 1.418840 9.925374 0.710899 -0.842244 3.796790 -1.592360 1.441267 9.796654 1.828060 0.840534 0.309647 -72.728487 -18.390524 30.863562 -177.056722 -84.462981 177.104270 -1.477224 1.533752 9.782242 -4.299011 -2.189060 1.243060 79.668703 -7.028542 8.232535 -169.887993 84.825338 -170.182012 -0.000000 -0.000000 0.000000 6.086787 1.307965 -21.833354 -0.873388 0.674384 33.180890 -0.000000 -0.000000 0.000000 -3.837023 -2.664890 -16.243423 0.493602 -0.946447 24.615973 
0.922306 0.048310 0.664389 -4.349790 -6.646314 -1.570045 -0.000000 -0.000000 0.000000 -0.464230 0.582772 4.694272 -1.594914 1.507695 9.724820 0.000000 0.000000 0.000000 -1.595020 1.428644 9.863432 1.190141 -0.368744 3.441064 -1.542383 1.438557 9.769799 2.021918 0.911593 0.324612 -73.056524 -17.992350 31.149046 -177.383447 -84.478884 177.459364 -1.443684 1.526530 9.719383 -4.400312 -2.153992 1.252705 79.647377 -7.401562 8.082261 -171.402915 84.291764 -171.670427 -0.000000 -0.000000 0.000000 5.964436 1.319042 -21.769096 -0.878625 0.680208 33.086569 -0.000000 -0.000000 0.000000 -3.867448 -2.530748 -16.153025 0.452964 -0.850855 24.467890 
1.040136 0.074059 0.711343 -4.387800 -6.744518 -1.553600 -0.000000 0.000000 0.000000 -0.441869 0.609320 4.685544 -1.519043 1.506547 9.629125 0.000000 0.000000 0.000000 -1.537247 1.432926 9.780551 1.689149 0.022352 3.113277 -1.490084 1.432886 9.734119 2.224354 0.987194 0.334546 -73.329399 -17.688752 31.288384 -177.657774 -84.438750 177.758547 -1.405316 1.518613 9.635552 -4.503087 -2.198997 1.253149 79.552275 -7.774966 7.909148 -172.632327 83.811005 -172.878010 -0.000000 -0.000000 0.000000 5.861282 1.352441 -21.711800 -0.882064 0.697503 32.971371 -0.000000 -0.000000 0.000000 -3.870641 -2.381783 -16.058313 0.400177 -0.773538 24.302122 
